<svg xmlns="http://www.w3.org/2000/svg" viewBox="0 0 506 506"><defs><style>.cls-1{stroke:#000;stroke-miterlimit:10;stroke-width:6px;}</style></defs><title>black_instagram_1</title><g id="Layer_2" data-name="Layer 2"><g id="Layer_1-2" data-name="Layer 1"><circle class="cls-1" cx="390.95" cy="116.99" r="28.07"/><path class="cls-1" d="M376.68,3H129.32C59.84,3,3,59.84,3,129.32V376.68C3,446.16,59.84,503,129.32,503H376.68C446.16,503,503,446.16,503,376.68V129.32C503,59.84,446.16,3,376.68,3ZM452.9,361.58c0,50.23-41.1,91.32-91.32,91.32H144.42c-50.23,0-91.32-41.1-91.32-91.32V144.42c0-50.23,41.1-91.32,91.32-91.32H361.58c50.23,0,91.32,41.1,91.32,91.32Z"/><path class="cls-1" d="M253,129.57A123.43,123.43,0,1,0,376.43,253,123.43,123.43,0,0,0,253,129.57Zm0,204.74A81.32,81.32,0,1,1,334.32,253,81.32,81.32,0,0,1,253,334.32Z"/></g></g></svg>