<svg xmlns="http://www.w3.org/2000/svg" viewBox="0 0 426.66 506.21"><defs><style>.cls-1{stroke:#000;stroke-miterlimit:10;stroke-width:6px;}</style></defs><title>black_github</title><g id="Layer_2" data-name="Layer 2"><g id="Layer_1-2" data-name="Layer 1"><path class="cls-1" d="M287.12,501.75a21,21,0,0,1-3.29.84,11.73,11.73,0,0,1-3.67-.15c-6-1.38-12-2.77-17.56-5.42a33.17,33.17,0,0,1-16.18-16.17,74.1,74.1,0,0,1-7.17-32.1q-.06-42.72,0-85.44c0-1.21,0-2.42,0-3.83H220.58v3.6q0,42.26,0,84.52a83.87,83.87,0,0,1-5.4,29.75c-5.09,13.53-14.86,21.48-28.79,24.54a87.63,87.63,0,0,1-9.11,1.29,6.28,6.28,0,0,1-5.67-2.41c2-3.46,3.95-6.84,6-10.12,4.4-7,6.28-14.88,7.39-22.91a111.93,111.93,0,0,0,.88-15c.08-28.48,0-57,0-85.44v-3.73c-6.71,2.28-11.81,5.71-14.19,12.18a30.4,30.4,0,0,0-1.4,6.89,55.38,55.38,0,0,0-.18,6.45q0,32.58,0,65.16a42.55,42.55,0,0,1-1.58,12.44,24.13,24.13,0,0,1-5.39,9.53C156,484,147,488.22,136.59,489.6a84,84,0,0,1-11.94.6,17.31,17.31,0,0,1-6.26-1.27c-4.08-1.68-4.69-5.92-1.35-8.79a69,69,0,0,1,6.4-4.77c6-4,10.95-8.82,13.84-15.63a24.14,24.14,0,0,0,2.27-9.47c0-6.75-.16-13.51-.49-20.25-.51-10.41-1.93-20.79-.82-31.5a13.29,13.29,0,0,0-1.88.29c-19.93,6.33-39.22,4.19-58-4.47-3.34-1.54-6.53-3.41-9.81-5.08a38.4,38.4,0,0,1-12.68-10.93,132.51,132.51,0,0,1-14-21.25c-5.95-11.57-14.18-21.27-23.53-30.12-3.87-3.66-7.91-7.13-11.88-10.68-.61-.55-1.28-1-1.85-1.61-2.05-2.05-2.13-3.8-.1-5.86A15.1,15.1,0,0,1,17,304.24a36.57,36.57,0,0,1,20.16,8.21c5.58,4.42,10.19,9.76,14.75,15.18,4,4.7,7.94,9.39,12.15,13.86A75.06,75.06,0,0,0,87.3,358.4c13.25,6.13,26.72,6.54,40.21,1,4.14-1.71,8-4.11,12-6.17a4.7,4.7,0,0,0,2.4-3c2.68-8.7,7.91-15.68,14.89-21.36a38.06,38.06,0,0,1,7.48-4.75c4.89-2.35,9.94-4.35,14.91-6.51a5.9,5.9,0,0,0,2.35-1.62c-2.26-.27-4.52-.57-6.79-.81-17.64-1.91-35.09-4.79-52.12-9.88-19-5.68-36.69-14-52.31-26.42-15-11.94-25-27.39-31.61-45.24-4.84-13.17-7.28-26.85-8.46-40.77a201.33,201.33,0,0,1,.41-37.12C33.25,129.8,42.87,107,60.18,87.55c.48-.54.94-1.08,1.4-1.63.07-.08.11-.17.36-.57-8.52-27.56-4.75-54.73,4.42-82,3.15.27,6.18.44,9.19.81A148.68,148.68,0,0,1,147.08,33a6.49,6.49,0,0,0,6.14,1.3,302,302,0,0,1,89.27-8.57,331.09,331.09,0,0,1,54.73,7.37,5.3,5.3,0,0,0,4.55-.8,259.11,259.11,0,0,1,31.78-18c11-5.34,22.73-8.08,34.77-9.6,4.86-.61,9.76-1,14.91-1.45.57,1.63,1.13,3,1.56,4.47,5.63,18.92,8.21,38.21,6.7,57.95-.35,4.58-1.25,9.12-2,13.66a3.12,3.12,0,0,0,.71,3.05c18.35,19.76,28.14,43.44,31.73,69.88a181.77,181.77,0,0,1-6.55,79.55c-7.35,23.52-21.95,41.54-42,55.58A147.87,147.87,0,0,1,313.07,312a286.2,286.2,0,0,1-30.77,3.78c-.47,0-.94.14-2.11.32,1.47.87,2.31,1.35,3.14,1.85,4.64,2.81,9.34,5.52,13.89,8.46,12.49,8.07,19.66,19.67,22.47,34.16a87,87,0,0,1,1.79,17.06c-.07,15.47-.06,30.94.17,46.41.17,11.37.75,22.73,1.08,34.09a7.35,7.35,0,0,0,1.36,4A54.68,54.68,0,0,0,342,479c.61.37,1.28.66,1.86,1.07a4.85,4.85,0,0,1-.47,8.53,13.76,13.76,0,0,1-5.27,1.49c-14.5.93-27.55-2.57-38.56-12.59-5.19-4.72-7.55-10.57-8.2-17.3-.23-2.34-.25-4.71-.25-7.06q0-32.12,0-64.23a68.21,68.21,0,0,0-.35-7.36c-.6-5.44-2.85-10-7.45-13.21a26.81,26.81,0,0,0-9.21-4.66,19.49,19.49,0,0,0-.31,2.41c0,30.12,0,60.24,0,90.36a88.61,88.61,0,0,0,2.08,21,24.79,24.79,0,0,0,4.51,9.65A33.62,33.62,0,0,1,287.12,501.75Z"/></g></g></svg>