<svg xmlns="http://www.w3.org/2000/svg" viewBox="0 0 514 514"><defs><style>.cls-1{fill:none;stroke:#000;stroke-miterlimit:10;stroke-width:14px;}</style></defs><title>black_vsco</title><g id="Layer_2" data-name="Layer 2"><g id="Layer_1-2" data-name="Layer 1"><circle class="cls-1" cx="257" cy="257" r="250"/><circle class="cls-1" cx="257" cy="257" r="193.88"/><circle class="cls-1" cx="257" cy="257" r="137.76"/><line class="cls-1" x1="257.51" y1="7.51" x2="257.51" y2="63.63"/><line class="cls-1" x1="257.51" y1="450.88" x2="257.51" y2="507"/><line class="cls-1" x1="197.73" y1="14.77" x2="211.16" y2="69.26"/><line class="cls-1" x1="303.86" y1="445.25" x2="317.29" y2="499.74"/><line class="cls-1" x1="141.42" y1="36.13" x2="167.51" y2="85.82"/><line class="cls-1" x1="347.51" y1="428.69" x2="373.6" y2="478.38"/><line class="cls-1" x1="91.86" y1="70.35" x2="129.09" y2="112.35"/><line class="cls-1" x1="385.93" y1="402.16" x2="423.16" y2="444.16"/><line class="cls-1" x1="51.94" y1="115.44" x2="98.13" y2="147.31"/><line class="cls-1" x1="416.89" y1="367.2" x2="463.08" y2="399.07"/><line class="cls-1" x1="23.96" y1="168.77" x2="76.45" y2="188.66"/><line class="cls-1" x1="438.57" y1="325.85" x2="491.06" y2="345.74"/><line class="cls-1" x1="9.57" y1="227.25" x2="65.29" y2="233.99"/><line class="cls-1" x1="449.73" y1="280.52" x2="505.45" y2="287.26"/><line class="cls-1" x1="9.6" y1="287.48" x2="65.31" y2="280.68"/><line class="cls-1" x1="449.71" y1="233.83" x2="505.42" y2="227.04"/><line class="cls-1" x1="24.04" y1="345.94" x2="76.51" y2="326.01"/><line class="cls-1" x1="438.51" y1="188.5" x2="490.98" y2="168.57"/><line class="cls-1" x1="52.06" y1="399.25" x2="98.23" y2="367.34"/><line class="cls-1" x1="416.79" y1="147.17" x2="462.96" y2="115.26"/><line class="cls-1" x1="92.02" y1="444.3" x2="129.21" y2="402.27"/><line class="cls-1" x1="385.81" y1="112.24" x2="423" y2="70.21"/><line class="cls-1" x1="141.61" y1="478.48" x2="167.66" y2="428.77"/><line class="cls-1" x1="347.36" y1="85.74" x2="373.41" y2="36.03"/><line class="cls-1" x1="197.94" y1="499.79" x2="211.32" y2="445.29"/><line class="cls-1" x1="303.7" y1="69.22" x2="317.08" y2="14.72"/><line class="cls-1" x1="257.51" y1="450.88" x2="257.51" y2="507"/><line class="cls-1" x1="257.51" y1="63.12" x2="257.51" y2="119.24"/><line class="cls-1" x1="257.51" y1="394.76" x2="257.51" y2="450.88"/><line class="cls-1" x1="173.4" y1="82.32" x2="197.75" y2="132.88"/><line class="cls-1" x1="317.27" y1="381.12" x2="341.62" y2="431.68"/><line class="cls-1" x1="105.95" y1="136.1" x2="149.82" y2="171.09"/><line class="cls-1" x1="365.2" y1="342.91" x2="409.07" y2="377.9"/><line class="cls-1" x1="68.5" y1="213.82" x2="123.22" y2="226.32"/><line class="cls-1" x1="391.8" y1="287.68" x2="446.52" y2="300.18"/><line class="cls-1" x1="68.48" y1="300.09" x2="123.2" y2="287.61"/><line class="cls-1" x1="391.82" y1="226.39" x2="446.54" y2="213.91"/><line class="cls-1" x1="105.89" y1="377.82" x2="149.78" y2="342.85"/><line class="cls-1" x1="365.24" y1="171.15" x2="409.13" y2="136.18"/><line class="cls-1" x1="173.31" y1="431.64" x2="197.68" y2="381.09"/><line class="cls-1" x1="317.34" y1="132.91" x2="341.71" y2="82.36"/></g></g></svg>