<svg xmlns="http://www.w3.org/2000/svg" viewBox="0 0 507.31 506"><defs><style>.cls-1{fill:none;stroke:#fff;stroke-miterlimit:10;stroke-width:6px;}</style></defs><title>white_linkedin</title><g id="Layer_2" data-name="Layer 2"><g id="Layer_1-2" data-name="Layer 1"><path class="cls-1" d="M283.76,502.8c0-6.89,0-12.57,0-18.25.43-56.62.6-113.25,1.5-169.87.23-14.45,4.2-28.47,12.78-40.54,12.08-17,29.66-21.35,49.33-21,24.35.39,40.78,11.86,46.14,35.55,3.28,14.51,4.48,29.75,4.63,44.68.53,53.67.29,107.36.1,161,0,6.35,1.52,8.67,8.38,8.58q44.51-.58,89,0c7.18.1,8.69-2.23,8.66-8.93-.24-57.1-.06-114.21-.17-171.32-.05-26.93-1.35-53.8-8.2-80-9-34.68-27.71-61.64-63-73.49a177,177,0,0,0-39.32-7.94c-33.47-3.2-64.6,3.71-90.68,26.18-8.48,7.31-15.43,16.39-23.33,24.93,0-12-.27-24.25.12-36.47.19-5.82-1.9-7.34-7.46-7.29-27.17.24-54.34.1-81.5.1-11.63,0-11.65,0-11.65,11.41q0,90.8,0,181.6c0,44.09.1,88.17-.11,132.26,0,6.49,1.3,9.14,8.66,9,28.3-.48,56.62-.2,84.93-.2Zm-271.94,0h7.8c29.22,0,58.44-.23,87.65.17,6.93.1,9.07-1.78,9-8.73-.37-22.6-.14-45.22-.14-67.83q0-122.3,0-244.59c0-16.24-.14-13-13.38-13.05-27.39-.17-54.78-.06-82.17,0-9.06,0-9.08,0-9.08,8.73q0,158.61,0,317.22C11.47,497.12,11.67,499.57,11.82,502.8Zm113-438.24C125,31.1,97.05,3,63.55,3,31.08,3,4.19,30.18,3,62.29,2,92.07,25,124.84,64,125,97.22,125.18,124.57,97.51,124.79,64.56Z"/></g></g></svg>