<svg xmlns="http://www.w3.org/2000/svg" viewBox="0 0 506 506"><defs><style>.cls-1{fill:none;stroke:#fff;stroke-miterlimit:10;stroke-width:6px;}</style></defs><title>white_vsco</title><g id="Layer_2" data-name="Layer 2"><g id="Layer_1-2" data-name="Layer 1"><circle class="cls-1" cx="253" cy="253" r="250"/><circle class="cls-1" cx="253" cy="253" r="193.88"/><circle class="cls-1" cx="253" cy="253" r="137.76"/><line class="cls-1" x1="253.51" y1="3.51" x2="253.51" y2="59.63"/><line class="cls-1" x1="253.51" y1="446.88" x2="253.51" y2="503"/><line class="cls-1" x1="193.73" y1="10.77" x2="207.16" y2="65.26"/><line class="cls-1" x1="299.86" y1="441.25" x2="313.29" y2="495.74"/><line class="cls-1" x1="137.42" y1="32.13" x2="163.51" y2="81.82"/><line class="cls-1" x1="343.51" y1="424.69" x2="369.6" y2="474.38"/><line class="cls-1" x1="87.86" y1="66.35" x2="125.09" y2="108.35"/><line class="cls-1" x1="381.93" y1="398.16" x2="419.16" y2="440.16"/><line class="cls-1" x1="47.94" y1="111.44" x2="94.13" y2="143.31"/><line class="cls-1" x1="412.89" y1="363.2" x2="459.08" y2="395.07"/><line class="cls-1" x1="19.96" y1="164.77" x2="72.45" y2="184.66"/><line class="cls-1" x1="434.57" y1="321.85" x2="487.06" y2="341.74"/><line class="cls-1" x1="5.57" y1="223.25" x2="61.29" y2="229.99"/><line class="cls-1" x1="445.73" y1="276.52" x2="501.45" y2="283.26"/><line class="cls-1" x1="5.6" y1="283.48" x2="61.31" y2="276.68"/><line class="cls-1" x1="445.71" y1="229.83" x2="501.42" y2="223.04"/><line class="cls-1" x1="20.04" y1="341.94" x2="72.51" y2="322.01"/><line class="cls-1" x1="434.51" y1="184.5" x2="486.98" y2="164.57"/><line class="cls-1" x1="48.06" y1="395.25" x2="94.23" y2="363.34"/><line class="cls-1" x1="412.79" y1="143.17" x2="458.96" y2="111.26"/><line class="cls-1" x1="88.02" y1="440.3" x2="125.21" y2="398.27"/><line class="cls-1" x1="381.81" y1="108.24" x2="419" y2="66.21"/><line class="cls-1" x1="137.61" y1="474.48" x2="163.66" y2="424.77"/><line class="cls-1" x1="343.36" y1="81.74" x2="369.41" y2="32.03"/><line class="cls-1" x1="193.94" y1="495.79" x2="207.32" y2="441.29"/><line class="cls-1" x1="299.7" y1="65.22" x2="313.08" y2="10.72"/><line class="cls-1" x1="253.51" y1="446.88" x2="253.51" y2="503"/><line class="cls-1" x1="253.51" y1="59.12" x2="253.51" y2="115.24"/><line class="cls-1" x1="253.51" y1="390.76" x2="253.51" y2="446.88"/><line class="cls-1" x1="169.4" y1="78.32" x2="193.75" y2="128.88"/><line class="cls-1" x1="313.27" y1="377.12" x2="337.62" y2="427.68"/><line class="cls-1" x1="101.95" y1="132.1" x2="145.82" y2="167.09"/><line class="cls-1" x1="361.2" y1="338.91" x2="405.07" y2="373.9"/><line class="cls-1" x1="64.5" y1="209.82" x2="119.22" y2="222.32"/><line class="cls-1" x1="387.8" y1="283.68" x2="442.52" y2="296.18"/><line class="cls-1" x1="64.48" y1="296.09" x2="119.2" y2="283.61"/><line class="cls-1" x1="387.82" y1="222.39" x2="442.54" y2="209.91"/><line class="cls-1" x1="101.89" y1="373.82" x2="145.78" y2="338.85"/><line class="cls-1" x1="361.24" y1="167.15" x2="405.13" y2="132.18"/><line class="cls-1" x1="169.31" y1="427.64" x2="193.68" y2="377.09"/><line class="cls-1" x1="313.34" y1="128.91" x2="337.71" y2="78.36"/></g></g></svg>